<svg width="280" height="140" viewBox="0 0 280 140" fill="none" xmlns="http://www.w3.org/2000/svg">
<path d="M140.5 13.64C98.8 13.64 65 38.35 65 68.85C65 81.56 70.89 93.26 80.76 102.6L67.44 123.88C66.34 125.45 66.97 126.43 68.85 126.05L103.3 116.88C114.29 121.43 126.97 124.05 140.5 124.05C182.19 124.05 216 99.34 216 68.84C216 38.34 182.19 13.64 140.5 13.64Z" fill="white"/>
<path d="M102.95 76.66C103.1 75.33 103.26 74.01 103.42 72.68L113.6 55.19L117.9 54.49L118.31 51.46H106.18L105.77 54.49L110.16 55.14L102.09 69.48L97.11 55.01L98.45 54.84L101.26 54.48L101.67 51.45H84.84L84.43 54.48L87.99 54.86L95.15 73.57L93.78 84.78L89.02 85.3L88.66 88.33H106.47L106.88 85.3L102.1 84.78C102.17 84.02 102.26 83.26 102.33 82.48C102.54 80.54 102.75 78.59 102.97 76.65H102.96L102.95 76.66Z" fill="black"/>
<path d="M185.19 84.88C185.09 83.36 185.53 82.08 186.52 81.05C187.5 80.01 188.67 79.49 190.03 79.49C191.31 79.49 192.39 79.94 193.26 80.84C194.13 81.74 194.61 82.79 194.68 83.98C194.77 85.42 194.31 86.64 193.32 87.66C192.31 88.68 191.13 89.18 189.78 89.18C188.5 89.18 187.44 88.75 186.59 87.89C185.74 87.03 185.28 86.02 185.2 84.86H185.19V84.88Z" fill="black"/>
<path d="M183.3 82.59C183.09 82.84 182.88 83.04 182.69 83.23C182.08 83.79 181.52 84.08 181.06 84.08C180.77 84.08 180.54 83.98 180.38 83.8C180.22 83.62 180.13 83.33 180.11 82.95C180.09 82.66 180.11 82.3 180.18 81.91C180.24 81.52 180.34 81.06 180.45 80.54L182.34 69.93C182.5 69.03 182.62 68.19 182.7 67.38C182.78 66.57 182.79 65.8 182.74 65.05C182.64 63.44 182.16 62.25 181.32 61.49C180.47 60.73 179.45 60.34 178.25 60.34C177.05 60.34 175.72 60.63 174.38 61.24C173.04 61.84 171.72 62.68 170.4 63.77C169.52 64.51 168.63 65.37 167.76 66.32C167.78 65.94 167.8 65.53 167.76 65.06C167.66 63.45 167.2 62.26 166.36 61.5C165.53 60.74 164.52 60.35 163.32 60.35C162.04 60.35 160.74 60.64 159.4 61.25C158.06 61.85 156.71 62.69 155.36 63.78C154.49 64.48 153.64 65.27 152.79 66.14L153.44 61.2L152.35 60.3L141.39 63.5L141.19 65.57L145.03 66.18L141.83 88.35H149.72C149.86 87.45 150 86.48 150.15 85.53C150.8 82.55 151.51 76.61 152.61 74.1C154.01 70.85 156.22 67.38 157.55 67.21C159.37 66.99 159.69 68.68 159.62 70.18C159.57 70.56 159.51 70.97 159.46 71.38L159.32 72.3L156.99 88.33H164.83C165.14 86.28 165.55 83.76 165.74 82.3C165.78 82.02 165.81 81.74 165.85 81.44C166.32 78.71 166.86 75.73 167.54 74.14C168.94 70.89 171.15 67.42 172.48 67.25C174.54 66.99 174.67 69.23 174.52 70.82C174.46 71.19 174.4 71.58 174.32 71.99L172.79 80.41C172.65 81.23 172.52 82.09 172.38 82.99C172.23 83.89 172.2 84.75 172.24 85.57C172.31 86.69 172.72 87.57 173.47 88.21C174.22 88.85 175.23 89.17 176.5 89.17C178.1 89.17 179.53 88.81 180.8 88.1C181.7 87.6 182.52 86.97 183.28 86.25C183.18 85.87 183.13 85.48 183.1 85.07C183.04 84.17 183.12 83.35 183.35 82.58L183.3 82.6V82.59Z" fill="black"/>
<path d="M136.51 83.72C135.76 83.78 135.52 82.79 135.63 81.4V81.26C135.63 81.16 135.65 81.01 135.68 80.85C135.89 79.2 136.31 76.33 136.32 76.3C136.61 74.2 136.9 72.27 136.9 72.26L138.59 61.17L137.5 60.27L130.36 62.63C130.2 64.05 130.04 65.45 129.89 66.84C129.46 69.86 128 76.91 126.87 78.83C125.56 81.09 123.89 83.36 122.56 83.38C122.08 83.37 121.65 83.2 121.26 82.88C120.85 82.55 120.63 81.96 120.57 81.14C120.55 80.77 120.57 80.38 120.61 79.99C120.66 79.6 120.71 79.18 120.77 78.73C120.83 78.28 120.91 77.83 120.98 77.38L123.66 61.16L122.62 60.26L111.37 63.4L111.17 65.54L115.1 66.2L113.06 79.05C112.94 79.98 112.83 80.92 112.72 81.82C112.61 82.74 112.58 83.61 112.65 84.43C112.71 85.4 112.98 86.25 113.46 86.96C113.94 87.67 114.55 88.21 115.3 88.59C116.05 88.96 116.86 89.15 117.73 89.15C119.04 89.15 120.36 88.83 121.71 88.19C123.05 87.55 124.39 86.64 125.72 85.44C126.2 85.01 126.68 84.52 127.16 84.02C126.95 85.39 126.96 88.13 129.97 88.83C130.22 88.89 130.46 88.94 130.72 88.97C130.74 88.97 130.77 88.98 130.79 88.98H131.11C131.21 88.98 131.29 89 131.4 89H131.55C136.5 89 139.75 85.91 139.75 85.91L140.6 80.88C139.5 81.95 137.63 83.58 136.48 83.69H136.53L136.51 83.72Z" fill="black"/>
<path d="M197.62 52.22C196.9 51.47 195.85 51.1 194.46 51.1C193.07 51.1 191.82 51.47 190.8 52.22C189.78 52.97 189.11 54.28 188.79 56.15C188.69 56.83 188.62 57.72 188.58 58.84C188.54 59.96 188.56 61.38 188.6 63.08C188.65 64.79 188.76 66.87 188.92 69.34L189.33 77.39C189.55 77.37 189.78 77.35 190.02 77.35C190.65 77.35 191.25 77.46 191.82 77.62C193.34 73.67 194.57 69.57 195.52 67.04C196.47 64.5 197.19 62.47 197.69 60.98C198.19 59.48 198.52 58.3 198.66 57.44C198.81 56.58 198.86 55.84 198.82 55.25C198.73 53.97 198.34 52.97 197.62 52.22Z" fill="black"/>
</svg>
